<?xml version="1.0" encoding="iso-8859-1"?>
<!-- Generator: Adobe Illustrator 18.1.1, SVG Export Plug-In . SVG Version: 6.00 Build 0)  -->
<svg version="1.1" id="Capa_1" xmlns="http://www.w3.org/2000/svg" xmlns:xlink="http://www.w3.org/1999/xlink" x="0px" y="0px"
	 viewBox="0 0 279.92 279.92" style="enable-background:new 0 0 279.92 279.92;" xml:space="preserve">
<g>
	<path style="fill:#010002;" d="M138.321,246.466c-1.34-0.021-2.42-1.13-2.4-2.48l0,0c0.02-1.35,1.13-2.43,2.48-2.41l0,0
		c1.35,0.021,2.43,1.13,2.4,2.48l0,0c-0.02,1.34-1.11,2.41-2.44,2.41l0,0C138.351,246.466,138.341,246.466,138.321,246.466z
		 M145.051,243.936c-0.1-1.34,0.91-2.51,2.26-2.61l0,0c1.341-0.09,2.511,0.92,2.61,2.261l0,0c0.09,1.35-0.92,2.52-2.26,2.619l0,0
		c-0.061,0-0.12,0-0.181,0l0,0C146.211,246.205,145.141,245.226,145.051,243.936z M129.001,245.926c-1.34-0.141-2.32-1.34-2.18-2.69
		l0,0c0.14-1.34,1.34-2.319,2.68-2.18v0.01c1.34,0.13,2.32,1.33,2.18,2.67l0,0c-0.12,1.26-1.19,2.2-2.43,2.2l0,0
		C129.171,245.936,129.091,245.926,129.001,245.926z M154.131,243.105c-0.21-1.33,0.7-2.59,2.03-2.8l0,0
		c1.33-0.21,2.58,0.689,2.8,2.03l0,0c0.21,1.33-0.7,2.58-2.03,2.8l0,0c-0.13,0.02-0.26,0.03-0.39,0.03l0,0
		C155.361,245.166,154.321,244.306,154.131,243.105z M119.761,244.565c-1.32-0.25-2.19-1.53-1.94-2.86l0,0
		c0.26-1.329,1.54-2.199,2.87-1.939l0,0c1.32,0.25,2.19,1.53,1.94,2.86l0,0c-0.23,1.17-1.25,1.979-2.4,1.979l0,0
		C120.081,244.605,119.921,244.596,119.761,244.565z M163.111,241.476c-0.33-1.31,0.47-2.63,1.77-2.96l0,0
		c1.311-0.33,2.64,0.46,2.97,1.77l0,0c0.33,1.311-0.46,2.631-1.77,2.96l0,0c-0.2,0.061-0.4,0.08-0.601,0.08l0,0
		C164.391,243.325,163.391,242.586,163.111,241.476z M110.681,242.405L110.681,242.405L110.681,242.405
		c-1.3-0.38-2.05-1.729-1.68-3.029l0,0c0.37-1.29,1.72-2.051,3.02-1.671l0,0c1.3,0.37,2.05,1.721,1.68,3.021l0,0
		c-0.31,1.07-1.29,1.77-2.35,1.77l0,0C111.131,242.495,110.901,242.466,110.681,242.405z M171.911,239.065
		c-0.44-1.28,0.229-2.67,1.51-3.11l0,0c1.271-0.449,2.66,0.23,3.11,1.5l0,0c0.439,1.28-0.23,2.671-1.5,3.11l0,0
		c-0.271,0.101-0.54,0.14-0.811,0.14l0,0C173.211,240.705,172.271,240.075,171.911,239.065z M101.821,239.445
		c-1.26-0.479-1.89-1.899-1.41-3.16l0,0c0.49-1.26,1.9-1.89,3.16-1.399l0,0c1.26,0.479,1.89,1.89,1.41,3.149l0,0
		c-0.38,0.98-1.3,1.57-2.29,1.57l0,0C102.401,239.605,102.111,239.556,101.821,239.445z M180.471,235.886
		c-0.56-1.23-0.01-2.681,1.221-3.23l0,0c1.229-0.56,2.68-0.01,3.229,1.221l0,0c0.56,1.229,0.01,2.68-1.22,3.239l0,0l0,0l0,0
		c-0.33,0.141-0.67,0.21-1,0.21l0,0C181.761,237.325,180.871,236.796,180.471,235.886z M93.251,235.716
		c-1.21-0.59-1.71-2.05-1.12-3.271l0,0c0.59-1.21,2.05-1.71,3.27-1.12l0,0c1.21,0.591,1.71,2.061,1.12,3.271l0,0
		c-0.43,0.87-1.29,1.37-2.2,1.37l0,0C93.961,235.966,93.601,235.886,93.251,235.716z M188.711,231.966
		c-0.66-1.181-0.25-2.67,0.93-3.33l0,0c1.181-0.66,2.67-0.24,3.33,0.939l0,0c0.66,1.181,0.24,2.66-0.939,3.33l0,0
		c-0.37,0.21-0.78,0.311-1.19,0.311l0,0C189.991,233.216,189.161,232.766,188.711,231.966z M85.041,231.245
		c-1.15-0.689-1.52-2.199-0.83-3.35l0,0c0.7-1.16,2.2-1.53,3.36-0.83l0,0c1.15,0.69,1.53,2.2,0.83,3.351l0,0
		c-0.46,0.76-1.27,1.18-2.1,1.18l0,0C85.871,231.596,85.441,231.485,85.041,231.245z M196.571,227.336
		c-0.761-1.11-0.471-2.631,0.64-3.391l0,0c1.12-0.77,2.64-0.479,3.4,0.63l0,0c0.76,1.12,0.47,2.641-0.641,3.4l0,0
		c-0.42,0.29-0.899,0.43-1.38,0.43l0,0C197.811,228.405,197.051,228.025,196.571,227.336z M77.261,226.075
		c-1.09-0.79-1.33-2.319-0.53-3.409l0,0c0.8-1.091,2.32-1.33,3.41-0.53l0,0c1.09,0.79,1.33,2.319,0.54,3.41l0,0
		c-0.48,0.659-1.22,1-1.98,1l0,0C78.201,226.546,77.701,226.396,77.261,226.075z M204.001,222.035c-0.85-1.04-0.7-2.58,0.34-3.439
		l0,0c1.05-0.851,2.59-0.7,3.44,0.34l0,0c0.859,1.05,0.699,2.59-0.34,3.44l0,0c-0.45,0.369-1,0.55-1.551,0.55l0,0
		C205.191,222.926,204.491,222.626,204.001,222.035z M69.971,220.256c-1.02-0.891-1.13-2.431-0.24-3.45l0,0
		c0.89-1.021,2.43-1.12,3.45-0.23l0,0c1.01,0.88,1.12,2.431,0.23,3.44l0,0c-0.48,0.56-1.16,0.84-1.84,0.84l0,0
		C71.001,220.855,70.431,220.655,69.971,220.256z M210.941,216.105c-0.94-0.96-0.921-2.51,0.039-3.45l0,0
		c0.971-0.95,2.511-0.93,3.461,0.04l0,0c0.939,0.96,0.92,2.51-0.04,3.45l0,0l0,0l0,0c-0.48,0.47-1.091,0.7-1.71,0.7l0,0
		C212.061,216.846,211.421,216.596,210.941,216.105z M63.201,213.815c-0.94-0.97-0.9-2.52,0.07-3.46l0,0
		c0.97-0.93,2.52-0.9,3.45,0.07l0,0c0.94,0.97,0.91,2.52-0.06,3.45l0,0c-0.48,0.46-1.09,0.689-1.7,0.689l0,0
		C64.321,214.565,63.681,214.315,63.201,213.815z M217.341,209.596c-1.02-0.88-1.14-2.42-0.26-3.44l0,0
		c0.88-1.029,2.42-1.149,3.45-0.27l0,0c1.02,0.88,1.14,2.43,0.26,3.45l0,0c-0.49,0.56-1.17,0.85-1.86,0.85l0,0
		C218.371,210.186,217.801,209.995,217.341,209.596z M57.021,206.806c0,0,0,0,0.01,0l0,0c-0.85-1.05-0.69-2.58,0.36-3.43l0,0
		c1.05-0.851,2.59-0.69,3.44,0.359l0,0c0.85,1.05,0.68,2.59-0.37,3.44l0,0c-0.45,0.359-0.99,0.54-1.53,0.54l0,0
		C58.211,207.716,57.511,207.405,57.021,206.806z M223.151,202.556c-1.101-0.79-1.351-2.32-0.561-3.41l0,0
		c0.79-1.1,2.311-1.35,3.41-0.56l0,0c1.09,0.779,1.35,2.31,0.56,3.409l0,0c-0.479,0.66-1.229,1.011-1.989,1.011l0,0
		C224.081,203.006,223.581,202.865,223.151,202.556z M51.481,199.296L51.481,199.296L51.481,199.296
		c-0.75-1.12-0.45-2.641,0.67-3.391l0,0c1.12-0.76,2.64-0.46,3.39,0.66l0,0c0.75,1.12,0.46,2.64-0.66,3.39l0,0
		c-0.42,0.28-0.9,0.421-1.37,0.421l0,0C52.731,200.376,51.951,199.995,51.481,199.296z M228.321,195.025
		c-1.16-0.689-1.551-2.18-0.86-3.35l0,0c0.69-1.16,2.19-1.54,3.35-0.851l0,0c1.16,0.681,1.551,2.181,0.86,3.341l0,0
		c-0.46,0.779-1.27,1.199-2.11,1.199l0,0C229.141,195.365,228.711,195.256,228.321,195.025z M46.621,191.325L46.621,191.325
		L46.621,191.325c-0.65-1.189-0.22-2.67,0.96-3.319l0,0c1.18-0.66,2.67-0.23,3.32,0.96l0,0c0.65,1.18,0.22,2.66-0.96,3.319l0,0
		c-0.37,0.2-0.78,0.301-1.18,0.301l0,0C47.901,192.586,47.061,192.126,46.621,191.325z M232.811,187.075
		c-1.22-0.58-1.729-2.04-1.149-3.26h0.01c0.58-1.21,2.04-1.729,3.25-1.14l0,0c1.22,0.58,1.73,2.04,1.15,3.26l0,0l0,0l0,0
		c-0.42,0.87-1.29,1.39-2.21,1.39l0,0C233.511,187.325,233.151,187.245,232.811,187.075z M42.481,182.955
		c-0.55-1.239,0.01-2.68,1.24-3.22l0,0c1.24-0.55,2.68,0.01,3.23,1.24l0,0c0.54,1.24-0.02,2.68-1.25,3.229l0,0
		c-0.32,0.141-0.66,0.2-0.99,0.2l0,0C43.771,184.405,42.881,183.865,42.481,182.955z M236.591,178.766
		c-1.27-0.48-1.91-1.88-1.43-3.15l0,0c0.47-1.26,1.88-1.899,3.14-1.43l0,0c1.271,0.48,1.91,1.89,1.43,3.15l0,0
		c-0.359,0.979-1.3,1.59-2.289,1.59l0,0C237.161,178.926,236.871,178.876,236.591,178.766z M39.081,174.256
		c-0.43-1.28,0.25-2.67,1.53-3.101l0,0c1.28-0.43,2.67,0.25,3.1,1.53l0,0c0.43,1.27-0.25,2.66-1.53,3.1l0,0
		c-0.26,0.091-0.52,0.131-0.78,0.131l0,0C40.381,175.916,39.431,175.275,39.081,174.256z M239.621,170.155
		c-1.311-0.359-2.07-1.71-1.71-3.01l0,0c0.359-1.3,1.71-2.06,3.01-1.7l0,0c1.3,0.36,2.06,1.71,1.7,3.01l0,0
		c-0.3,1.08-1.28,1.79-2.351,1.79l0,0C240.051,170.245,239.831,170.216,239.621,170.155z M36.471,165.285
		c-0.32-1.31,0.48-2.63,1.8-2.949l0,0c1.31-0.32,2.63,0.479,2.95,1.79l0,0c0.32,1.319-0.49,2.64-1.8,2.96l0,0
		c-0.19,0.05-0.38,0.069-0.58,0.069l0,0C37.741,167.155,36.741,166.405,36.471,165.285z M241.871,161.315
		c-1.33-0.25-2.21-1.52-1.96-2.85l0,0c0.24-1.33,1.52-2.21,2.84-1.96l0,0c1.33,0.239,2.21,1.52,1.96,2.84l0,0
		c-0.21,1.18-1.24,2.01-2.4,2.01l0,0C242.171,161.355,242.021,161.336,241.871,161.315z M34.661,156.126L34.661,156.126
		L34.661,156.126c-0.2-1.33,0.71-2.58,2.05-2.78l0,0c1.33-0.21,2.58,0.71,2.78,2.05l0,0c0.2,1.33-0.71,2.58-2.05,2.78l0,0
		c-0.12,0.02-0.24,0.029-0.36,0.029l0,0C35.891,158.205,34.841,157.336,34.661,156.126z M243.341,152.306
		c-1.35-0.13-2.33-1.32-2.21-2.66h0.01c0.12-1.35,1.311-2.34,2.66-2.21l0,0c1.34,0.13,2.33,1.32,2.2,2.66l0,0l0,0l0,0
		c-0.12,1.27-1.18,2.22-2.43,2.22l0,0C243.491,152.315,243.421,152.306,243.341,152.306z M33.661,146.846L33.661,146.846
		L33.661,146.846c-0.08-1.351,0.94-2.51,2.28-2.601l0,0c1.35-0.079,2.51,0.94,2.6,2.29l0,0c0.08,1.341-0.94,2.5-2.29,2.591l0,0
		c-0.05,0-0.1,0.01-0.15,0.01l0,0C34.821,149.136,33.741,148.136,33.661,146.846z M244.011,143.205c-1.35-0.01-2.43-1.119-2.42-2.47
		h-0.01c0.01-1.35,1.12-2.43,2.47-2.42l0,0c1.351,0.01,2.43,1.11,2.42,2.46l0,0l0,0l0,0c-0.01,1.351-1.1,2.43-2.439,2.43l0,0
		C244.021,143.205,244.021,143.205,244.011,143.205z M35.861,140.006c-1.35-0.03-2.42-1.15-2.39-2.5l0,0l0,0l0,0
		c0.03-1.351,1.15-2.42,2.5-2.391l0,0c1.35,0.04,2.42,1.15,2.38,2.5l0,0c-0.02,1.33-1.11,2.391-2.43,2.391l0,0
		C35.901,140.006,35.881,140.006,35.861,140.006z M241.271,131.836v-0.011c-0.109-1.34,0.9-2.52,2.24-2.62l0,0
		c1.351-0.109,2.521,0.891,2.63,2.24l0,0l0,0l0,0c0.11,1.34-0.899,2.521-2.239,2.63l0,0c-0.07,0-0.131,0.011-0.2,0.011l0,0
		C242.441,134.086,241.371,133.115,241.271,131.836z M36.251,130.886c-1.34-0.141-2.31-1.351-2.17-2.69l0,0l0,0l0,0
		c0.15-1.34,1.36-2.31,2.7-2.16l0,0c1.34,0.141,2.31,1.351,2.16,2.69l0,0c-0.14,1.25-1.19,2.18-2.43,2.18l0,0
		C36.431,130.905,36.341,130.896,36.251,130.886z M240.181,122.985c-0.229-1.33,0.67-2.59,2-2.81l0,0c1.33-0.23,2.59,0.67,2.82,2
		l0,0c0.22,1.33-0.67,2.59-2.01,2.819l0,0c-0.13,0.021-0.271,0.03-0.41,0.03l0,0C241.411,125.025,240.381,124.186,240.181,122.985z
		 M37.431,121.836c-1.33-0.261-2.19-1.551-1.92-2.87l0,0l0,0l0,0c0.26-1.32,1.55-2.181,2.88-1.92l0,0c1.32,0.27,2.18,1.55,1.91,2.88
		l0,0c-0.23,1.16-1.25,1.96-2.39,1.96l0,0C37.751,121.886,37.591,121.876,37.431,121.836z M238.321,114.275
		c-0.341-1.3,0.439-2.64,1.739-2.979l0,0c1.311-0.341,2.65,0.439,2.99,1.75l0,0c0.34,1.31-0.45,2.64-1.75,2.979l0,0
		c-0.21,0.05-0.42,0.08-0.62,0.08l0,0C239.591,116.105,238.601,115.376,238.321,114.275z M39.401,112.926
		c-1.3-0.38-2.04-1.74-1.66-3.03l0,0c0.38-1.3,1.74-2.04,3.04-1.66l0,0c1.29,0.38,2.03,1.74,1.65,3.04l0,0
		c-0.31,1.061-1.28,1.75-2.34,1.75l0,0C39.861,113.025,39.631,112.995,39.401,112.926z M235.691,105.766
		c-0.45-1.271,0.21-2.67,1.479-3.13l0,0c1.271-0.45,2.67,0.21,3.13,1.479l0,0l0,0l0,0c0.45,1.271-0.21,2.67-1.479,3.13l0,0
		c-0.28,0.091-0.551,0.141-0.83,0.141l0,0C236.991,107.386,236.051,106.766,235.691,105.766z M42.151,104.226
		c-1.26-0.49-1.87-1.91-1.38-3.17l0,0l0,0l0,0c0.49-1.26,1.91-1.87,3.17-1.38l0,0c1.25,0.49,1.87,1.91,1.38,3.17l0,0
		c-0.38,0.96-1.3,1.55-2.28,1.55l0,0C42.741,104.396,42.441,104.336,42.151,104.226z M232.331,97.516
		c-0.561-1.22-0.03-2.68,1.2-3.24l0,0c1.229-0.56,2.68-0.03,3.239,1.2l0,0l0,0l0,0c0.57,1.22,0.03,2.68-1.199,3.24l0,0
		c-0.33,0.149-0.681,0.229-1.021,0.229l0,0C233.631,98.945,232.741,98.416,232.331,97.516z M45.661,95.796
		c-1.21-0.601-1.7-2.07-1.1-3.28l0,0c0.61-1.2,2.07-1.7,3.28-1.1l0,0c1.21,0.609,1.7,2.069,1.1,3.279l0,0
		c-0.43,0.86-1.3,1.36-2.19,1.36l0,0C46.381,96.056,46.011,95.966,45.661,95.796z M228.251,89.596L228.251,89.596
		c-0.67-1.17-0.26-2.66,0.91-3.33l0,0c1.17-0.67,2.67-0.271,3.34,0.91l0,0c0.67,1.17,0.26,2.66-0.91,3.33l0,0
		c-0.38,0.22-0.8,0.319-1.21,0.319l0,0C229.531,90.825,228.711,90.386,228.251,89.596z M49.901,87.705
		c-1.15-0.699-1.51-2.21-0.81-3.359l0,0c0.71-1.15,2.21-1.51,3.37-0.8l0,0c1.14,0.699,1.51,2.21,0.8,3.359l0,0
		c-0.46,0.75-1.26,1.16-2.08,1.16l0,0C50.741,88.065,50.301,87.955,49.901,87.705z M223.501,82.065L223.501,82.065
		c-0.771-1.11-0.5-2.63,0.61-3.4l0,0c1.109-0.77,2.63-0.5,3.399,0.61l0,0c0.771,1.11,0.5,2.63-0.609,3.4l0,0
		c-0.431,0.3-0.91,0.439-1.391,0.439l0,0C224.73,83.115,223.971,82.745,223.501,82.065z M54.831,80.025
		c-1.08-0.8-1.31-2.33-0.51-3.42l0,0c0.8-1.08,2.34-1.31,3.42-0.51l0,0c1.08,0.81,1.31,2.34,0.51,3.42l0,0
		c-0.48,0.65-1.22,0.99-1.97,0.99l0,0C55.781,80.506,55.271,80.346,54.831,80.025z M218.101,74.976c-0.87-1.04-0.72-2.58,0.311-3.44
		l0,0c1.04-0.87,2.58-0.73,3.45,0.31l0,0c0.859,1.04,0.72,2.58-0.32,3.44l0,0c-0.46,0.38-1.01,0.57-1.561,0.57l0,0
		C219.281,75.855,218.581,75.556,218.101,74.976z M60.411,72.806c-1.01-0.9-1.1-2.44-0.21-3.45l0,0c0.9-1.01,2.44-1.11,3.45-0.21
		l0,0c1.01,0.89,1.11,2.44,0.21,3.45l0,0c-0.48,0.54-1.15,0.82-1.83,0.82l0,0C61.451,73.416,60.881,73.215,60.411,72.806z
		 M212.101,68.375L212.101,68.375c-0.949-0.96-0.939-2.5,0.021-3.45l0,0c0.95-0.95,2.5-0.95,3.45,0.01l0,0l0,0l0,0
		c0.949,0.96,0.949,2.51-0.011,3.46l0,0c-0.479,0.47-1.1,0.71-1.72,0.71l0,0C213.211,69.105,212.581,68.855,212.101,68.375z
		 M66.601,66.096c-0.93-0.98-0.88-2.53,0.1-3.46l0,0c0.97-0.93,2.52-0.88,3.45,0.1l0,0c0.93,0.97,0.89,2.52-0.09,3.45l0,0
		c-0.47,0.45-1.08,0.67-1.68,0.67l0,0C67.731,66.855,67.081,66.596,66.601,66.096z M205.561,62.326c-1.04-0.87-1.159-2.41-0.29-3.44
		l0,0c0.87-1.03,2.41-1.16,3.44-0.28l0,0c1.03,0.87,1.16,2.41,0.29,3.44l0,0c-0.48,0.57-1.17,0.86-1.87,0.86l0,0
		C206.581,62.906,206.011,62.715,205.561,62.326z M73.351,59.946c-0.84-1.05-0.66-2.59,0.4-3.43l0,0c1.05-0.84,2.59-0.66,3.43,0.39
		l0,0c0.84,1.06,0.66,2.6-0.39,3.44l0,0c-0.45,0.35-0.99,0.53-1.52,0.53l0,0C74.551,60.875,73.841,60.556,73.351,59.946z
		 M198.511,56.875L198.511,56.875c-1.109-0.78-1.37-2.3-0.59-3.4l0,0c0.78-1.11,2.3-1.37,3.4-0.59l0,0
		c1.109,0.78,1.37,2.3,0.59,3.41l0,0c-0.48,0.67-1.23,1.03-2,1.03l0,0C199.431,57.326,198.931,57.176,198.511,56.875z
		 M80.611,54.416c-0.74-1.12-0.43-2.64,0.7-3.38l0,0c1.12-0.75,2.64-0.44,3.38,0.69l0,0c0.74,1.12,0.43,2.64-0.69,3.38l0,0
		c-0.42,0.28-0.88,0.41-1.35,0.41l0,0C81.861,55.516,81.081,55.125,80.611,54.416z M191.011,52.056c-1.17-0.67-1.569-2.17-0.89-3.34
		l0,0c0.68-1.16,2.18-1.56,3.34-0.88l0,0c1.17,0.68,1.57,2.18,0.89,3.34l0,0c-0.46,0.78-1.279,1.22-2.12,1.22l0,0
		C191.821,52.396,191.391,52.286,191.011,52.056z M88.331,49.545c-0.64-1.19-0.2-2.67,0.98-3.32l0,0c1.19-0.64,2.67-0.2,3.32,0.99
		l0,0c0.64,1.19,0.2,2.67-0.99,3.31l0,0c-0.37,0.2-0.77,0.3-1.16,0.3l0,0C89.611,50.826,88.771,50.355,88.331,49.545z
		 M183.111,47.916c-1.221-0.57-1.74-2.03-1.17-3.25l0,0c0.569-1.22,2.029-1.74,3.25-1.17l0,0c1.22,0.57,1.75,2.03,1.17,3.25l0,0
		c-0.41,0.89-1.29,1.41-2.21,1.41l0,0C183.801,48.156,183.451,48.076,183.111,47.916z M96.441,45.366
		c-0.54-1.24,0.03-2.68,1.27-3.22l0,0l0,0l0,0c1.24-0.53,2.68,0.04,3.21,1.28l0,0c0.54,1.24-0.03,2.67-1.27,3.21l0,0
		c-0.31,0.14-0.64,0.2-0.97,0.2l0,0C97.741,46.835,96.841,46.286,96.441,45.366z M174.891,44.485c-1.27-0.46-1.92-1.86-1.46-3.13
		l0,0c0.46-1.27,1.87-1.92,3.141-1.45l0,0c1.26,0.46,1.909,1.86,1.449,3.13l0,0c-0.359,0.99-1.3,1.6-2.29,1.6l0,0
		C175.451,44.636,175.161,44.585,174.891,44.485z M104.891,41.916c-0.43-1.28,0.27-2.67,1.55-3.09l0,0
		c1.28-0.43,2.66,0.27,3.09,1.55l0,0c0.42,1.28-0.27,2.66-1.56,3.09l0,0c-0.25,0.08-0.51,0.12-0.77,0.12l0,0
		C106.181,43.585,105.221,42.936,104.891,41.916z M166.391,41.795c-1.3-0.34-2.069-1.68-1.72-2.99l0,0c0.35-1.3,1.69-2.07,2.99-1.72
		l0,0c1.3,0.34,2.08,1.69,1.729,2.99l0,0c-0.3,1.09-1.279,1.81-2.359,1.81l0,0C166.821,41.886,166.601,41.855,166.391,41.795z
		 M113.611,39.226c-0.31-1.32,0.5-2.63,1.81-2.94l0,0c1.32-0.31,2.63,0.5,2.94,1.81l0,0c0.31,1.32-0.5,2.63-1.82,2.94h0.01
		c-0.19,0.05-0.38,0.07-0.57,0.07l0,0C114.871,41.105,113.871,40.346,113.611,39.226z M157.691,39.875
		c-1.33-0.24-2.211-1.51-1.98-2.83l0,0c0.24-1.33,1.5-2.22,2.83-1.99l0,0l0,0l0,0c1.33,0.24,2.22,1.5,1.979,2.83l0,0
		c-0.21,1.19-1.239,2.02-2.399,2.02l0,0C157.98,39.906,157.841,39.896,157.691,39.875z M122.531,37.306
		c-0.19-1.33,0.73-2.57,2.07-2.76l0,0c1.33-0.2,2.57,0.73,2.77,2.07l0,0c0.19,1.33-0.74,2.57-2.07,2.76l0,0
		c-0.12,0.02-0.24,0.03-0.35,0.03l0,0C123.751,39.406,122.711,38.525,122.531,37.306z M148.861,38.715
		c-1.341-0.12-2.341-1.3-2.221-2.65l0,0c0.12-1.34,1.301-2.34,2.641-2.22l0,0c1.35,0.12,2.34,1.3,2.229,2.65l0,0
		c-0.109,1.27-1.18,2.23-2.43,2.23l0,0C149.011,38.726,148.931,38.715,148.861,38.715z M131.591,36.186
		c-0.08-1.34,0.95-2.5,2.3-2.57l0,0c1.35-0.08,2.5,0.95,2.58,2.3l0,0c0.07,1.35-0.96,2.5-2.31,2.58l0,0c-0.04,0-0.09,0-0.13,0l0,0
		C132.741,38.496,131.661,37.485,131.591,36.186z M137.511,35.886c0-1.35,1.1-2.44,2.45-2.44l0,0c1.35,0,2.44,1.09,2.44,2.44l0,0
		c0,1.35-1.09,2.44-2.44,2.44l0,0C138.611,38.326,137.511,37.235,137.511,35.886z"/>
	<path style="fill:#010002;" d="M139.959,279.92C62.786,279.92,0,217.134,0,139.96C0,62.786,62.786,0,139.959,0
		c77.174,0,139.96,62.786,139.96,139.96C279.92,217.134,217.134,279.92,139.959,279.92z M139.959,4.453
		C65.241,4.453,4.453,65.241,4.453,139.96s60.788,135.507,135.506,135.507c74.719,0,135.507-60.788,135.507-135.507
		S214.679,4.453,139.959,4.453z"/>
	<path style="fill:#010002;" d="M139.959,208.917c-38.023,0-68.958-30.934-68.958-68.957s30.934-68.958,68.958-68.958
		c38.023,0,68.958,30.935,68.958,68.958S177.982,208.917,139.959,208.917z M139.959,74.854c-35.899,0-65.106,29.207-65.106,65.106
		s29.207,65.105,65.106,65.105c35.9,0,65.106-29.206,65.106-65.105S175.859,74.854,139.959,74.854z"/>
	<polygon style="fill:#010002;" points="139.96,73.638 154.531,118.485 201.687,118.485 163.535,146.207 178.112,191.054 
		139.96,163.338 101.808,191.054 116.379,146.207 78.226,118.485 125.389,118.485 	"/>
</g>
<g>
</g>
<g>
</g>
<g>
</g>
<g>
</g>
<g>
</g>
<g>
</g>
<g>
</g>
<g>
</g>
<g>
</g>
<g>
</g>
<g>
</g>
<g>
</g>
<g>
</g>
<g>
</g>
<g>
</g>
</svg>
